<?xml version="1.0" encoding="utf-8"?>
<!-- Generator: Adobe Illustrator 22.0.1, SVG Export Plug-In . SVG Version: 6.00 Build 0)  -->
<svg version="1.1" id="Layer_1" xmlns="http://www.w3.org/2000/svg" xmlns:xlink="http://www.w3.org/1999/xlink" x="0px" y="0px"
	 viewBox="0 0 100 100" style="enable-background:new 0 0 100 100;" xml:space="preserve">
<path style="fill:#FFFFFF;stroke:#000000;stroke-width:2;stroke-miterlimit:10;" d="M9.948,30.006l20.023,20.023L9.917,70.083
	c-5.5,5.5-5.5,14.417,0,19.917l0.153,0.153c5.5,5.5,14.417,5.5,19.917,0L50.07,70.07l20.054,20.054c5.5,5.5,14.417,5.5,19.917,0
	l0.104-0.104c5.5-5.5,5.5-14.417,0-19.917L70.021,49.979l19.991-19.991c5.5-5.5,5.5-14.417,0-19.917l0,0
	c-5.5-5.5-14.417-5.5-19.917,0L50.083,30.083L29.977,9.977c-5.504-5.504-14.43-5.499-19.928,0.011l-0.111,0.112
	C4.447,15.601,4.452,24.51,9.948,30.006z"/>
</svg>
