<?xml version="1.0" encoding="UTF-8" standalone="no"?>
<!DOCTYPE svg PUBLIC "-//W3C//DTD SVG 1.1//EN" "http://www.w3.org/Graphics/SVG/1.1/DTD/svg11.dtd">
<svg width="100%" height="100%" viewBox="0 0 100 100" version="1.1" xmlns="http://www.w3.org/2000/svg" xmlns:xlink="http://www.w3.org/1999/xlink" xml:space="preserve" xmlns:serif="http://www.serif.com/" style="fill-rule:evenodd;clip-rule:evenodd;stroke-linejoin:round;stroke-miterlimit:2;">
    <path d="M9.948,30.006L29.971,50.029L9.917,70.083C4.417,75.583 4.417,84.5 9.917,90L10.07,90.153C15.57,95.653 24.487,95.653 29.987,90.153L50.07,70.07L70.124,90.124C75.624,95.624 84.541,95.624 90.041,90.124L90.145,90.02C95.645,84.52 95.645,75.603 90.145,70.103L70.021,49.979L90.012,29.988C95.512,24.488 95.512,15.571 90.012,10.071C84.512,4.571 75.595,4.571 70.095,10.071L50.083,30.083L29.977,9.977C24.473,4.473 15.547,4.478 10.049,9.988L9.938,10.1C4.447,15.601 4.452,24.51 9.948,30.006Z" style="fill-rule:nonzero;"/>
</svg>
