<?xml version="1.0" encoding="utf-8"?>
<!-- Generator: Adobe Illustrator 22.1.0, SVG Export Plug-In . SVG Version: 6.00 Build 0)  -->
<svg version="1.1" xmlns="http://www.w3.org/2000/svg" xmlns:xlink="http://www.w3.org/1999/xlink" x="0px" y="0px"
	 viewBox="0 0 100 100" enable-background="new 0 0 100 100" xml:space="preserve">
<path fill="#FFFFFF" d="M13.4,23.4l26,26c0.4,0.4,0.6,0.9,0.6,1.4v22.9c0,0.8,0.4,1.5,1.1,1.8l16,8c1.3,0.7,2.9-0.3,2.9-1.8V50.8
	c0-0.5,0.2-1,0.6-1.4l26-26c1.3-1.3,0.4-3.4-1.4-3.4H14.8C13,20,12.2,22.2,13.4,23.4z"/>
<path fill="#FFFF00" d="M20,30l19.4,19.4c0.4,0.4,0.6,0.9,0.6,1.4v22.9c0,0.8,0.4,1.5,1.1,1.8l16,8c1.3,0.7,2.9-0.3,2.9-1.8V50.8
	c0-0.5,0.2-1,0.6-1.4L80,30H20z"/>
<path fill="none" stroke="#000000" stroke-width="2" stroke-miterlimit="10" d="M13.4,23.4l26,26c0.4,0.4,0.6,0.9,0.6,1.4v22.9
	c0,0.8,0.4,1.5,1.1,1.8l16,8c1.3,0.7,2.9-0.3,2.9-1.8V50.8c0-0.5,0.2-1,0.6-1.4l26-26c1.3-1.3,0.4-3.4-1.4-3.4H14.8
	C13,20,12.2,22.2,13.4,23.4z"/>
</svg>
