<?xml version="1.0" encoding="utf-8"?>
<!-- Generator: Adobe Illustrator 18.1.1, SVG Export Plug-In . SVG Version: 6.00 Build 0)  -->
<svg version="1.1" xmlns="http://www.w3.org/2000/svg" xmlns:xlink="http://www.w3.org/1999/xlink" x="0px" y="0px"
	 viewBox="0 0 100 100" enable-background="new 0 0 100 100" xml:space="preserve">
<g>
	<linearGradient id="SVGID_1_" gradientUnits="userSpaceOnUse" x1="50" y1="90" x2="50" y2="10.1312">
		<stop  offset="0" style="stop-color:#C0C000"/>
		<stop  offset="0.2712" style="stop-color:#D3D326"/>
		<stop  offset="0.7662" style="stop-color:#F3F367"/>
		<stop  offset="1" style="stop-color:#FFFF80"/>
	</linearGradient>
	<path fill="url(#SVGID_1_)" d="M14,90c-7.7,0-10.9-5.5-7-12.1l36-62.7c3.8-6.7,10.1-6.7,14,0l36,62.7c3.8,6.7,0.7,12.1-7,12.1H14z"
		/>
	<path fill="none" stroke="#000000" stroke-miterlimit="10" d="M14,90.5c-7.7,0-10.9-5.7-7-12.4l36-62.8c3.8-6.7,10.1-6.7,14-0.1
		l36,62.9c3.8,6.7,0.7,12.4-7,12.4H14z"/>
</g>
<g>
	<linearGradient id="SVGID_2_" gradientUnits="userSpaceOnUse" x1="50" y1="81" x2="50" y2="25.4538">
		<stop  offset="0" style="stop-color:#A4A4A4"/>
		<stop  offset="9.670377e-03" style="stop-color:#A5A5A5"/>
		<stop  offset="0.6827" style="stop-color:#E6E6E6"/>
		<stop  offset="1" style="stop-color:#FFFFFF"/>
	</linearGradient>
	<path fill="url(#SVGID_2_)" d="M22.2,81c-3.3,0-4.7-2.2-3-5.1L47,27.6c1.6-2.9,4.3-2.8,6,0l27.8,48.3c1.6,2.9,0.3,5.1-3,5.1H22.2z"
		/>
	<path fill="none" stroke="#000000" stroke-miterlimit="10" d="M22.2,81.5c-3.3,0-4.7-2.4-3-5.3L47,27.7c1.6-2.9,4.3-2.9,6,0
		l27.8,48.5c1.6,2.9,0.3,5.3-3,5.3H22.2z"/>
</g>
<path d="M47.3,59.7L46.5,48c-0.1-2.3-0.2-3.9-0.2-4.9c0-1.4,0.4-2.4,1.1-3.2s1.6-1.1,2.8-1.1c1.4,0,2.3,0.5,2.8,1.5
	c0.5,1,0.7,2.4,0.7,4.2c0,1.1-0.1,2.2-0.2,3.3l-1,12c-0.1,1.4-0.4,2.5-0.7,3.3c-0.4,0.8-1,1.1-1.9,1.1c-0.9,0-1.5-0.4-1.8-1.1
	C47.7,62.3,47.5,61.2,47.3,59.7z M50,75.7c-1,0-1.9-0.3-2.6-1c-0.7-0.6-1.1-1.5-1.1-2.7c0-1,0.4-1.9,1.1-2.6
	c0.7-0.7,1.6-1.1,2.6-1.1s1.9,0.4,2.6,1.1c0.7,0.7,1.1,1.6,1.1,2.6c0,1.1-0.4,2-1.1,2.7S51,75.7,50,75.7z"/>
</svg>
